<svg xmlns="http://www.w3.org/2000/svg" fill="none" viewBox="0 0 24 24" id="Office-Worker--Streamline-Outlined-Expansion" height="24" width="24">
  <desc>
    Office Worker Streamline Icon: https://streamlinehq.com
  </desc>
  <g id="office-worker">
    <path id="Union" fill="#1e9cff" fill-rule="evenodd" d="M5.0875 5.4125C5.47917 5.80417 5.95 6 6.5 6s1.02083 -0.19583 1.4125 -0.5875C8.30417 5.02083 8.5 4.55 8.5 4s-0.19583 -1.02083 -0.5875 -1.4125C7.52083 2.19583 7.05 2 6.5 2s-1.02083 0.19583 -1.4125 0.5875C4.69583 2.97917 4.5 3.45 4.5 4s0.19583 1.02083 0.5875 1.4125ZM4.5 15v7h3.67071C8.06015 21.6872 8 21.3506 8 21v-6c0 -1.3062 0.83481 -2.4175 2 -2.8293V9c0 -0.55 -0.19583 -1.02083 -0.5875 -1.4125C9.02083 7.19583 8.55 7 8 7H5c-0.55 0 -1.02083 0.19583 -1.4125 0.5875C3.19583 7.97917 3 8.45 3 9v6h1.5Zm8.25 -2.5c0 -0.4142 0.3358 -0.75 0.75 -0.75h4c0.4142 0 0.75 0.3358 0.75 0.75V14H20c0.5523 0 1 0.4477 1 1v6c0 0.5523 -0.4477 1 -1 1h-9c-0.5523 0 -1 -0.4477 -1 -1v-6c0 -0.5523 0.4477 -1 1 -1h1.75v-1.5Zm4 0.75V14h-2.5v-0.75h2.5ZM12 16v4h7v-4h-7Z" clip-rule="evenodd" stroke-width="1"></path>
  </g>
</svg>